<?xml version="1.0" encoding="UTF-8" standalone="no" ?>
<!DOCTYPE svg PUBLIC "-//W3C//DTD SVG 1.1//EN" "http://www.w3.org/Graphics/SVG/1.1/DTD/svg11.dtd">
<svg xmlns="http://www.w3.org/2000/svg" xmlns:xlink="http://www.w3.org/1999/xlink" version="1.1" width="1280" height="1024" viewBox="0 0 1280 1024" xml:space="preserve">
<desc>Created with Fabric.js 5.3.0</desc>
<defs>
</defs>
<g transform="matrix(1 0 0 1 640 512)" id="background-logo"  >
<rect style="stroke: none; stroke-width: 0; stroke-dasharray: none; stroke-linecap: butt; stroke-dashoffset: 0; stroke-linejoin: miter; stroke-miterlimit: 4; fill: rgb(66,66,66); fill-rule: nonzero; opacity: 1;"  paint-order="stroke"  x="-640" y="-512" rx="0" ry="0" width="1280" height="1024" />
</g>
<g transform="matrix(4.7792579068687795 0 0 4.7792579068687795 640.345914127424 440.9561096130904)" id="logo-logo"  >
<g style=""  paint-order="stroke"   >
		<g transform="matrix(0.8305069827377196 0 0 0.8305069827377195 0 0)"  >
<g style=""  paint-order="stroke"   >
		<g transform="matrix(1 0 0 1 0 0)"  >
<rect style="stroke: none; stroke-width: 1; stroke-dasharray: none; stroke-linecap: butt; stroke-dashoffset: 0; stroke-linejoin: miter; stroke-miterlimit: 4; fill: rgb(255,255,255); fill-rule: nonzero; opacity: 1;"  paint-order="stroke"  x="-100" y="-100" rx="40" ry="40" width="200" height="200" />
</g>
</g>
</g>
		<g transform="matrix(0.040533386547761514 0 0 -0.040533386547761514 0 15.741313368168619)"  >
<path style="stroke: none; stroke-width: 1; stroke-dasharray: none; stroke-linecap: butt; stroke-dashoffset: 0; stroke-linejoin: miter; stroke-miterlimit: 4; fill: rgb(122,122,122); fill-rule: nonzero; opacity: 1;"  paint-order="stroke"  transform=" translate(-1837.35, -1291.6599999999999)" d="M 3569.89 1386.54 C 3508.54 1316.06 3419.38 1275.6299999999999 3325.29 1275.6299999999999 C 3231.71 1275.6299999999999 3142.7 1316.09 3081.07 1386.6299999999999 L 3028.7200000000003 1446.55 L 2976.4100000000003 1386.61 C 2914.86 1316.08 2825.76 1275.6299999999999 2731.9500000000003 1275.6299999999999 C 2638.3700000000003 1275.6299999999999 2549.3500000000004 1316.09 2487.7300000000005 1386.6299999999999 L 2435.4100000000003 1446.53 L 2383.09 1386.6299999999999 C 2321.4700000000003 1316.09 2232.4500000000003 1275.6299999999999 2138.88 1275.6299999999999 C 2045.0600000000002 1275.6299999999999 1955.95 1316.08 1894.41 1386.61 L 1842.0800000000002 1446.55 L 1789.7300000000002 1386.6299999999999 C 1728.1200000000003 1316.09 1639.1100000000001 1275.6299999999999 1545.5400000000002 1275.6299999999999 C 1451.4400000000003 1275.6299999999999 1362.2900000000002 1316.06 1300.9300000000003 1386.54 L 1248.6200000000003 1446.6399999999999 L 1196.2000000000003 1386.6299999999999 C 1134.5900000000004 1316.09 1045.5700000000002 1275.6299999999999 951.9920000000003 1275.6299999999999 C 858.1800000000003 1275.6299999999999 769.0820000000003 1316.08 707.5310000000003 1386.61 L 655.2190000000003 1446.55 L 602.8630000000003 1386.6299999999999 C 541.2340000000003 1316.09 452.2270000000003 1275.6299999999999 358.65200000000027 1275.6299999999999 C 260.98000000000025 1275.6299999999999 169.47700000000026 1319.05 107.58600000000027 1394.7599999999998 L 0 1306.81 C 88.3867 1198.69 219.109 1136.6799999999998 358.652 1136.6799999999998 C 467.75 1136.6799999999998 572.488 1175.1599999999999 655.172 1244.07 C 737.836 1175.1599999999999 842.688 1136.6799999999998 951.992 1136.6799999999998 C 1061.08 1136.6799999999998 1165.81 1175.1499999999999 1248.47 1244.0399999999997 C 1331.05 1175.1499999999996 1435.98 1136.6799999999998 1545.54 1136.6799999999998 C 1654.6399999999999 1136.6799999999998 1759.3899999999999 1175.1599999999999 1842.05 1244.07 C 1924.72 1175.1699999999998 2029.58 1136.6799999999998 2138.88 1136.6799999999998 C 2247.9900000000002 1136.6799999999998 2352.73 1175.1599999999999 2435.41 1244.08 C 2518.0899999999997 1175.1599999999999 2622.83 1136.6799999999998 2731.95 1136.6799999999998 C 2841.25 1136.6799999999998 2946.1 1175.1599999999999 3028.7599999999998 1244.07 C 3111.45 1175.1599999999999 3216.18 1136.6799999999998 3325.29 1136.6799999999998 C 3459.59 1136.6799999999998 3586.95 1194.4999999999998 3674.7 1295.31 L 3569.89 1386.54" stroke-linecap="round" />
</g>
		<g transform="matrix(0.040533386547761514 0 0 -0.040533386547761514 -0.0013781351427155641 38.77781507840416)"  >
<path style="stroke: none; stroke-width: 1; stroke-dasharray: none; stroke-linecap: butt; stroke-dashoffset: 0; stroke-linejoin: miter; stroke-miterlimit: 4; fill: rgb(122,122,122); fill-rule: nonzero; opacity: 1;"  paint-order="stroke"  transform=" translate(-1837.3159999999993, -723.326)" d="M 3028.71 707.293 C 2935.14 707.293 2846.13 747.754 2784.51 818.3050000000001 L 2732.1800000000003 878.2030000000001 L 2679.86 818.3050000000001 C 2618.2200000000003 747.754 2529.21 707.2930000000001 2435.65 707.2930000000001 C 2341.84 707.2930000000001 2252.73 747.7420000000001 2191.1800000000003 818.2810000000002 L 2138.8500000000004 878.2380000000002 L 2086.51 818.3050000000002 C 2024.88 747.7540000000001 1935.8700000000003 707.2930000000001 1842.3000000000002 707.2930000000001 C 1748.2000000000003 707.2930000000001 1659.0600000000002 747.7190000000002 1597.7100000000003 818.2030000000001 L 1545.3900000000003 878.316 L 1492.9800000000002 818.3050000000001 C 1431.3500000000001 747.754 1342.3400000000001 707.2930000000001 1248.7600000000002 707.2930000000001 C 1154.9500000000003 707.2930000000001 1065.8400000000001 747.7420000000001 1004.2900000000002 818.2810000000002 L 951.9690000000002 878.2380000000002 L 899.6250000000001 818.3050000000002 C 837.992 747.754 748.988 707.293 655.422 707.293 C 557.754 707.293 466.23800000000006 750.719 404.348 826.426 L 296.762 738.469 C 385.168 630.3520000000001 515.891 568.336 655.422 568.336 C 764.5120000000001 568.336 869.2620000000001 606.832 951.934 675.742 C 1034.61 606.832 1139.46 568.336 1248.76 568.336 C 1357.84 568.336 1462.58 606.809 1545.24 675.711 C 1627.82 606.809 1732.74 568.336 1842.3 568.336 C 1951.3999999999999 568.336 2056.14 606.832 2138.8199999999997 675.742 C 2221.4999999999995 606.832 2326.3399999999997 568.336 2435.6499999999996 568.336 C 2544.74 568.336 2649.4999999999995 606.832 2732.1799999999994 675.754 C 2814.859999999999 606.832 2919.609999999999 568.336 3028.709999999999 568.336 C 3162.669999999999 568.336 3289.939999999999 626.1370000000001 3377.869999999999 726.926 L 3273.179999999999 818.273 C 3211.6299999999987 747.742 3122.529999999999 707.293 3028.709999999999 707.293" stroke-linecap="round" />
</g>
		<g transform="matrix(0.040533386547761514 0 0 -0.040533386547761514 -0.001398401835842833 61.813911454774285)"  >
<path style="stroke: none; stroke-width: 1; stroke-dasharray: none; stroke-linecap: butt; stroke-dashoffset: 0; stroke-linejoin: miter; stroke-miterlimit: 4; fill: rgb(122,122,122); fill-rule: nonzero; opacity: 1;"  paint-order="stroke"  transform=" translate(-1837.3155, -155.002)" d="M 2732.32 138.957 C 2638.52 138.957 2549.4100000000003 179.414 2487.8500000000004 249.957 L 2435.5200000000004 309.914 L 2383.1700000000005 249.97699999999998 C 2321.5600000000004 179.414 2232.5500000000006 138.957 2138.9800000000005 138.957 C 2044.8800000000006 138.957 1955.7300000000005 179.391 1894.3800000000006 249.887 L 1842.0600000000006 310.004 L 1789.6300000000006 249.97700000000003 C 1728.0300000000007 179.41400000000004 1639.0200000000004 138.95700000000005 1545.4300000000005 138.95700000000005 C 1451.6300000000006 138.95700000000005 1362.5200000000004 179.41400000000004 1300.9700000000005 249.95700000000005 L 1248.6500000000005 309.91400000000004 L 1196.2900000000006 249.97700000000003 C 1134.6800000000007 179.41400000000004 1045.6700000000005 138.95700000000005 952.0940000000006 138.95700000000005 C 854.4380000000006 138.95700000000005 762.9180000000006 182.37900000000005 701.0270000000006 258.07400000000007 L 593.441 170.145 C 681.852 62.0156 812.563 0 952.094 0 C 1061.2 0 1165.94 38.4922 1248.62 107.406 C 1331.28 38.4922 1436.13 0 1545.43 0 C 1654.52 0 1759.26 38.4727 1841.92 107.383 C 1924.5 38.4727 2029.43 0 2138.98 0 C 2248.08 0 2352.83 38.4922 2435.49 107.406 C 2518.16 38.4922 2623.02 0 2732.32 0 C 2866.03 0 2993.19 57.8086 3081.19 158.563 L 2976.52 249.97699999999998 C 2914.91 179.414 2825.91 138.957 2732.32 138.957" stroke-linecap="round" />
</g>
		<g transform="matrix(0.040533386547761514 0 0 -0.040533386547761514 -3.1158419573129663 -36.39212040876393)"  >
<path style="stroke: none; stroke-width: 1; stroke-dasharray: none; stroke-linecap: butt; stroke-dashoffset: 0; stroke-linejoin: miter; stroke-miterlimit: 4; fill: rgb(122,122,122); fill-rule: nonzero; opacity: 1;"  paint-order="stroke"  transform=" translate(-1760.479, -2577.8450000000003)" d="M 675.926 1635.4 L 3288.45 1635.4 L 3288.45 2186.62 L 2678.7999999999997 2258.6099999999997 L 2678.7999999999997 2596.47 L 2678.7999999999997 2665.95 L 2678.7999999999997 2903.8599999999997 L 2678.7999999999997 2973.3399999999997 L 2678.7999999999997 3520.29 L 2539.84 3520.29 L 2539.84 2973.34 L 2002.5 2973.34 L 1727.16 2665.95 L 1262.2 2665.95 L 1047.46 2451.23 L 232.50800000000004 2547.45 z M 3149.5 1774.36 L 762.887 1774.36 L 468.602 2379.66 L 3149.5 2063.11 Z M 2064.58 2834.39 L 2539.84 2834.39 L 2539.84 2665.95 L 1913.71 2665.95 Z M 1319.76 2527 L 2539.84 2527 L 2539.84 2275.01 L 1223.2300000000002 2430.4700000000003 L 1319.7600000000002 2527.0000000000005" stroke-linecap="round" />
</g>
		<g transform="matrix(0.040533386547761514 0 0 -0.040533386547761514 -30.9907532196749 -13.748752014655167)"  >
<path style="stroke: none; stroke-width: 1; stroke-dasharray: none; stroke-linecap: butt; stroke-dashoffset: 0; stroke-linejoin: miter; stroke-miterlimit: 4; fill: rgb(122,122,122); fill-rule: nonzero; opacity: 1;"  paint-order="stroke"  transform=" translate(-1072.7765, -2019.21)" d="M 1072.77 1908.66 C 1133.83 1908.66 1183.33 1958.15 1183.33 2019.21 C 1183.33 2080.27 1133.83 2129.76 1072.77 2129.76 C 1011.72 2129.76 962.223 2080.2700000000004 962.223 2019.2100000000003 C 962.223 1958.1500000000003 1011.7199999999999 1908.6600000000003 1072.77 1908.6600000000003" stroke-linecap="round" />
</g>
		<g transform="matrix(0.040533386547761514 0 0 -0.040533386547761514 -13.191185318103464 -13.748752014655167)"  >
<path style="stroke: none; stroke-width: 1; stroke-dasharray: none; stroke-linecap: butt; stroke-dashoffset: 0; stroke-linejoin: miter; stroke-miterlimit: 4; fill: rgb(122,122,122); fill-rule: nonzero; opacity: 1;"  paint-order="stroke"  transform=" translate(-1511.91, -2019.21)" d="M 1511.91 1908.66 C 1572.97 1908.66 1622.46 1958.15 1622.46 2019.21 C 1622.46 2080.27 1572.97 2129.76 1511.91 2129.76 C 1450.8600000000001 2129.76 1401.3600000000001 2080.2700000000004 1401.3600000000001 2019.2100000000003 C 1401.3600000000001 1958.1500000000003 1450.8600000000001 1908.6600000000003 1511.91 1908.6600000000003" stroke-linecap="round" />
</g>
</g>
</g>
<g transform="matrix(1.9211538461538462 0 0 1.9211538461538462 627.3203736061207 916.7998510484088)" id="text-logo"  >
<g style=""  paint-order="stroke"   >
		<g transform="matrix(1 0 0 1 0 0)" id="text-logo-path-0"  >
<path style="stroke: none; stroke-width: 0; stroke-dasharray: none; stroke-linecap: butt; stroke-dashoffset: 0; stroke-linejoin: miter; stroke-miterlimit: 4; fill: rgb(255,255,255); fill-rule: nonzero; opacity: 1;"  paint-order="stroke"  transform=" translate(-117.45, 20.31)" d="M 31.38 -31.56 L 31.38 -41.04 L 0.72 -41.04 L 0.72 -31.56 L 11.1 -31.56 L 11.1 0 L 21.06 0 L 21.06 -31.56 Z M 66.18 0.84 C 77.94 0.84 87.3 -8.7 87.3 -20.34 C 87.3 -32.16 77.88 -41.46 66.18 -41.46 C 54.42 -41.46 45 -31.98 45 -20.34 C 45 -8.76 54.48 0.84 66.18 0.84 Z M 54.96 -20.34 C 54.96 -26.46 60.12 -31.5 66.18 -31.5 C 72.36 -31.5 77.28 -26.46 77.28 -20.34 C 77.28 -14.22 72.36 -9.18 66.18 -9.18 C 60.06 -9.18 54.96 -14.28 54.96 -20.34 Z M 122.7 -41.04 L 105.18 -41.04 L 105.18 0 L 122.7 0 C 134.4 0 143.76 -8.64 143.76 -20.34 C 143.76 -31.98 134.4 -41.04 122.7 -41.04 Z M 115.2 -9.42 L 115.2 -31.56 L 122.7 -31.56 C 128.88 -31.56 133.8 -26.58 133.8 -20.46 C 133.8 -14.28 128.76 -9.42 122.7 -9.42 Z M 172.98 -9.42 L 172.98 -16.26 L 187.26 -16.26 L 187.26 -25.68 L 172.98 -25.68 L 172.98 -31.56 L 188.7 -31.56 L 188.7 -41.04 L 162.96 -41.04 L 162.96 0 L 189 0 L 189 -9.42 Z M 218.16 -9.42 L 218.16 -16.26 L 232.44 -16.26 L 232.44 -25.68 L 218.16 -25.68 L 218.16 -31.56 L 233.88 -31.56 L 233.88 -41.04 L 208.14 -41.04 L 208.14 0 L 234.18 0 L 234.18 -9.42 Z" stroke-linecap="round" />
</g>
</g>
</g>
</svg>